<svg width="22" height="19" viewBox="0 0 22 19" fill="none" xmlns="http://www.w3.org/2000/svg">
<path fill-rule="evenodd" clip-rule="evenodd" d="M11.6924 4.58373C11.3055 4.95505 10.6945 4.95505 10.3076 4.58373L9.6152 3.91927C8.80477 3.14154 7.70994 2.66667 6.5 2.66667C4.01472 2.66667 2 4.68139 2 7.16667C2 9.5493 3.28979 11.5167 5.15176 13.1332C7.01532 14.7511 9.2434 15.8241 10.5746 16.3717C10.853 16.4862 11.147 16.4862 11.4254 16.3717C12.7566 15.8241 14.9847 14.7511 16.8482 13.1332C18.7102 11.5167 20 9.54929 20 7.16667C20 4.68139 17.9853 2.66667 15.5 2.66667C14.2901 2.66667 13.1952 3.14154 12.3848 3.91927L11.6924 4.58373ZM11 2.47624C9.83211 1.35548 8.24649 0.666672 6.5 0.666672C2.91015 0.666672 0 3.57682 0 7.16667C0 13.5349 6.97034 17.0517 9.81379 18.2214C10.5796 18.5364 11.4204 18.5364 12.1862 18.2214C15.0297 17.0517 22 13.5349 22 7.16667C22 3.57682 19.0899 0.666672 15.5 0.666672C13.7535 0.666672 12.1679 1.35548 11 2.47624Z" fill="#141718"/>
</svg>
